<svg width="311" height="156" viewBox="0 0 311 156" fill="none" xmlns="http://www.w3.org/2000/svg">
<path d="M232.784 0.500001H78.25C65.513 0.498176 52.9732 3.65597 41.7469 9.69225C30.5207 15.7285 20.9564 24.456 13.9054 35.0976C6.8545 45.7393 2.53578 57.9649 1.33375 70.6861C0.131718 83.4073 2.08368 96.2292 7.01585 108.011C11.948 119.792 19.7074 130.167 29.6031 138.212C39.4988 146.257 51.2238 151.722 63.7342 154.122C76.2447 156.521 89.1524 155.78 101.308 151.964C113.464 148.148 124.491 141.375 133.407 132.25H177.594C186.508 141.374 197.534 148.146 209.688 151.962C221.842 155.779 234.748 156.521 247.257 154.123C259.767 151.726 271.491 146.262 281.387 138.22C291.283 130.177 299.043 119.805 303.978 108.026C308.912 96.2473 310.867 83.4273 309.668 70.7072C308.47 57.9871 304.155 45.7616 297.109 35.1188C290.062 24.476 280.502 15.7462 269.279 9.70627C258.056 3.66635 245.519 0.503766 232.784 0.500001ZM120.738 83.8125C120.738 85.3541 120.127 86.8325 119.041 87.9226C117.954 89.0126 116.48 89.625 114.944 89.625H89.8375V114.812C89.8375 116.354 89.2271 117.833 88.1406 118.923C87.054 120.013 85.5804 120.625 84.0438 120.625H72.4563C70.9197 120.625 69.446 120.013 68.3595 118.923C67.2729 117.833 66.6625 116.354 66.6625 114.812V89.625H41.5563C40.0197 89.625 38.546 89.0126 37.4595 87.9226C36.3729 86.8325 35.7625 85.3541 35.7625 83.8125V72.1875C35.7625 70.6459 36.3729 69.1675 37.4595 68.0774C38.546 66.9874 40.0197 66.375 41.5563 66.375H66.6625V41.1875C66.6625 39.6459 67.2729 38.1675 68.3595 37.0774C69.446 35.9874 70.9197 35.375 72.4563 35.375H84.0438C85.5804 35.375 87.054 35.9874 88.1406 37.0774C89.2271 38.1675 89.8375 39.6459 89.8375 41.1875V66.375H114.944C116.48 66.375 117.954 66.9874 119.041 68.0774C120.127 69.1675 120.738 70.6459 120.738 72.1875V83.8125ZM225.025 120.625C221.205 120.625 217.471 119.489 214.296 117.36C211.12 115.231 208.644 112.205 207.183 108.664C205.721 105.124 205.338 101.229 206.084 97.4701C206.829 93.7117 208.668 90.2594 211.369 87.5498C214.07 84.8402 217.511 82.9949 221.257 82.2473C225.004 81.4997 228.887 81.8834 232.416 83.3498C235.944 84.8163 238.961 87.2996 241.083 90.4858C243.205 93.672 244.338 97.418 244.338 101.25C244.338 106.389 242.303 111.317 238.681 114.95C235.059 118.584 230.147 120.625 225.025 120.625ZM255.925 74.125C252.105 74.125 248.371 72.9887 245.196 70.8597C242.02 68.7308 239.544 65.7048 238.083 62.1645C236.621 58.6242 236.238 54.7285 236.984 50.9701C237.729 47.2117 239.568 43.7594 242.269 41.0498C244.97 38.3402 248.411 36.4949 252.157 35.7473C255.904 34.9997 259.787 35.3834 263.316 36.8498C266.844 38.3163 269.861 40.7996 271.983 43.9858C274.105 47.172 275.238 50.918 275.238 54.75C275.238 59.8886 273.203 64.8167 269.581 68.4502C265.959 72.0837 261.047 74.125 255.925 74.125Z" fill="#6778D1"/>
</svg>
