<svg width="155" height="155" viewBox="0 0 155 155" fill="none" xmlns="http://www.w3.org/2000/svg">
<path d="M77.5 0C34.6875 0 0 34.6875 0 77.5C0 120.312 34.6875 155 77.5 155C120.312 155 155 120.312 155 77.5C155 34.6875 120.312 0 77.5 0ZM72.5 102.5C72.5 105.25 70.25 107.5 67.5 107.5H52.5C49.75 107.5 47.5 105.25 47.5 102.5V52.5C47.5 49.75 49.75 47.5 52.5 47.5H67.5C70.25 47.5 72.5 49.75 72.5 52.5V102.5ZM107.5 102.5C107.5 105.25 105.25 107.5 102.5 107.5H87.5C84.75 107.5 82.5 105.25 82.5 102.5V52.5C82.5 49.75 84.75 47.5 87.5 47.5H102.5C105.25 47.5 107.5 49.75 107.5 52.5V102.5Z" fill="#6778D1"/>
</svg>
